<svg xmlns="http://www.w3.org/2000/svg" xmlns:xlink="http://www.w3.org/1999/xlink" xmlns:lucid="lucid" width="1591.3" height="589"><g transform="translate(-171.25 -200)" lucid:page-tab-id="0_0"><path d="M0 0h1870.87v1322.83H0z" fill="#fff"/><path d="M994.67 536.25c1.1-1.1.9-3.17 0-4.35l-5.8-5.8L963 500.87c-1.14-1.1-2.8-1.1-4.14 0-1.14 1.18-1.48 3.25 0 4.35l27.2 26.7c1.1 1.18 1.1 3.25 0 4.35l-27.77 27.66c-1.1 1.1-1.1 3.18 0 4.35 1.13 1.1 3.18.9 4.13 0l25.67-25.6.2-.2 6.37-6.2zM876.2 536.25c-1.1-1.1-.92-3.17 0-4.35l5.8-5.8 25.87-25.24c1.14-1.1 2.8-1.1 4.14 0 1.15 1.18 1.5 3.25 0 4.35l-26.62 26.7c-1.1 1.18-1.1 3.25 0 4.35l27.2 27.66c1.1 1.1 1.1 3.18 0 4.35-1.14 1.1-3.2.9-4.14 0L882.2 543l-.2-.13-5.8-6.62z" stroke="#000" stroke-opacity="0" stroke-width="2.34" fill="#3999c6"/><path d="M964.68 480H928.1l-19.66 55.72 24 .1L913.68 591l51.72-73.6H940.3l24.38-37.4z" stroke="#000" stroke-opacity="0" stroke-width="2.34" fill="#fcd116"/><path d="M940.28 517.4L964.7 480h-19.14l-20.23 46.3 23.95.2-35.6 64.5 51.74-73.6h-25.14z" stroke="#000" stroke-opacity="0" stroke-width="2.34" fill="#ff8c00" fill-opacity=".3"/><path d="M929.33 482.37l-5.7 19.16-14.53.93L876.9 534l32.32 32.68 12.44 5.2-5.82 14.26 11.86-16.55 30.58-1.36 34.88-34.03-31.86-31.95-11.86-.52 11.5-19.67z" stroke="#000" stroke-opacity="0" stroke-width="0" fill-opacity="0"/><use xlink:href="#a" transform="matrix(1,0,0,1,845.4330708661416,600) translate(20.57499999999999 14.4)"/><use xlink:href="#b" transform="matrix(1,0,0,1,845.4330708661416,600) translate(81.52499999999999 14.4)"/><path d="M994.67 276.25c1.1-1.1.9-3.17 0-4.35l-5.8-5.8L963 240.87c-1.14-1.1-2.8-1.1-4.14 0-1.14 1.18-1.48 3.25 0 4.35l27.2 26.7c1.1 1.18 1.1 3.25 0 4.35l-27.77 27.66c-1.1 1.1-1.1 3.18 0 4.35 1.13 1.1 3.18.9 4.13 0l25.67-25.6.2-.2 6.37-6.2zM876.2 276.25c-1.1-1.1-.92-3.17 0-4.35l5.8-5.8 25.87-25.24c1.14-1.1 2.8-1.1 4.14 0 1.15 1.18 1.5 3.25 0 4.35l-26.62 26.7c-1.1 1.18-1.1 3.25 0 4.35l27.2 27.66c1.1 1.1 1.1 3.18 0 4.35-1.14 1.1-3.2.9-4.14 0L882.2 283l-.2-.13-5.8-6.62z" stroke="#000" stroke-opacity="0" stroke-width="2.34" fill="#3999c6"/><path d="M964.68 220H928.1l-19.66 55.72 24 .1L913.68 331l51.72-73.6H940.3l24.38-37.4z" stroke="#000" stroke-opacity="0" stroke-width="2.34" fill="#fcd116"/><path d="M940.28 257.4L964.7 220h-19.14l-20.23 46.3 23.95.2-35.6 64.5 51.74-73.6h-25.14z" stroke="#000" stroke-opacity="0" stroke-width="2.34" fill="#ff8c00" fill-opacity=".3"/><path d="M929.33 222.37l-5.7 19.16-14.53.93L876.9 274l32.32 32.68 12.44 5.2-5.82 14.26 11.86-16.55 30.58-1.36 34.88-34.03-31.86-31.95-11.86-.52 11.5-19.67z" stroke="#000" stroke-opacity="0" stroke-width="0" fill-opacity="0"/><use xlink:href="#c" transform="matrix(1,0,0,1,845.4330708661416,340) translate(12.599999999999994 14.4)"/><use xlink:href="#b" transform="matrix(1,0,0,1,845.4330708661416,340) translate(89.5 14.4)"/><path d="M503.8 262.7h-63.9c-2.65 0-4.78-2.16-4.78-4.8 0-2.66 2.13-4.83 4.77-4.83h63.9c2.63 0 4.76 2.17 4.76 4.82 0 2.64-2.13 4.8-4.77 4.8zM490.8 303h-59.04c-2.67 0-4.8-2.17-4.8-4.82 0-2.66 2.13-4.83 4.8-4.83h59.04c2.67 0 4.8 2.17 4.8 4.83 0 2.65-2.13 4.82-4.8 4.82zM483.84 283.46H424.8c-2.67 0-4.8-2.17-4.8-4.82 0-2.66 2.13-4.83 4.8-4.83h59.04c2.67 0 4.8 2.18 4.8 4.84 0 2.65-2.13 4.82-4.8 4.82z" stroke="#000" stroke-opacity="0" fill="#7a7a7a"/><path d="M540 292.6c0-5.77-4.53-10.34-10.1-10.34h-1.4c.44-2.2.96-4.62.96-7.25 0-14.95-12.3-27-26.92-27-11.76 0-21.78 7.97-25.44 18.3-1.92-.43-3.83-.92-6-.92-10.3 0-18.22 8.42-18.22 18.8 0 10.35 8.2 18.82 18.2 18.82h59.34c5.5-.72 9.58-5.06 9.58-10.4" stroke="#000" stroke-opacity="0" fill="#3999c6"/><path d="M480.7 302.78c-2.37-2.42-4.28-5.33-5.03-9.18-2.14-10.13 3.87-20.03 13.7-22.23 2.15-.44 4.06-.44 6.25-.22.7-9.4 6.48-17.6 15.1-21.72-2.66-.72-5.26-1.43-8.16-1.43-11.74 0-21.86 7.97-25.45 18.3-1.9-.43-3.8-.92-6-.92-10.3 0-18.22 8.42-18.22 18.8 0 10.35 8.16 18.82 18.22 18.82l9.6-.22z" stroke="#000" stroke-opacity="0" fill="#fff" fill-opacity=".2"/><use xlink:href="#d" transform="matrix(1,0,0,1,390,312) translate(38.14999999999999 14.4)"/><use xlink:href="#e" transform="matrix(1,0,0,1,390,312) translate(82 14.4)"/><path d="M485 740c-2.75 0-5.28-1-7.15-2.7l-44.88-40.8c-1.87-1.7-2.97-4.1-2.97-6.5 0-2.4 1.1-4.8 2.97-6.5l44.88-40.8c1.87-1.7 4.4-2.7 7.15-2.7s5.28 1 7.15 2.7l44.88 40.8c1.87 1.7 2.97 4 2.97 6.5s-1.1 4.8-2.97 6.5l-44.88 40.8c-1.87 1.7-4.4 2.7-7.15 2.7" stroke="#000" stroke-opacity="0" fill="#59b4d9"/><path d="M515 682.15c-4.8 0-8.65 3.57-8.65 7.85 0 1.57.54 3.07 1.4 4.28l-17.05 15.5c-.38-.3-.92-.5-1.4-.72v-39.54c2.56-1.36 4.33-3.86 4.33-6.7 0-4.36-3.85-7.86-8.63-7.86-4.78 0-8.56 3.5-8.56 7.85 0 2.86 1.7 5.36 4.24 6.72v39.54l-1.4.64-17.03-15.5c.85-1.2 1.4-2.63 1.4-4.2 0-4.28-3.86-7.85-8.57-7.85-4.78 0-8.63 3.57-8.63 7.85 0 4.36 3.85 7.85 8.63 7.85.93 0 1.85-.2 2.78-.5l17.96 16.35c-.54 1.07-.85 2.28-.85 3.5 0 5.06 4.48 9.13 10.03 9.13 5.55 0 10.02-4.07 10.02-9.14 0-1.22-.3-2.36-.77-3.5l17.96-16.35c.86.3 1.78.5 2.7.5 4.8 0 8.64-3.5 8.64-7.85 0-4.28-3.85-7.85-8.55-7.85z" stroke="#000" stroke-opacity="0" fill="#fff"/><path d="M519.04 689.96l-3.94 3.57-32.16-29.22 3.94-3.57 32.16 29.23z" stroke="#000" stroke-opacity="0" fill="#fff" fill-opacity=".5"/><path d="M483.16 660.75l3.93 3.58-32.17 29.23L451 690l32.16-29.25z" stroke="#000" stroke-opacity="0" stroke-width=".71" fill="#fff" fill-opacity=".5"/><path d="M490.86 717.23c0 3-2.67 5.4-5.96 5.4-3.3 0-5.96-2.4-5.96-5.4 0-3 2.67-5.42 5.96-5.42 3.3 0 5.96 2.44 5.96 5.43M489.78 662.78c0 2.4-2.14 4.35-4.78 4.35s-4.78-1.95-4.78-4.35c0-2.4 2.14-4.35 4.78-4.35s4.78 1.95 4.78 4.35M459.84 690c0 2.4-2.14 4.35-4.78 4.35s-4.8-1.95-4.8-4.35c0-2.4 2.16-4.35 4.8-4.35 2.64 0 4.78 1.95 4.78 4.35M519.73 690c0 2.4-2.14 4.35-4.78 4.35s-4.78-1.95-4.78-4.35c0-2.4 2.14-4.35 4.78-4.35s4.78 1.95 4.78 4.35" stroke="#000" stroke-opacity="0" fill="#b8d432"/><path d="M492.2 642.7c-1.97-1.74-4.48-2.7-7.23-2.7-2.66 0-5.25.96-7.15 2.7l-44.85 40.77c-1.9 1.75-2.97 4.14-2.97 6.52 0 2.46 1.07 4.77 2.97 6.52l25.43 23.1 47.74-64.26-13.93-12.65z" stroke="#000" stroke-opacity="0" fill="#fff" fill-opacity=".1"/><use xlink:href="#f" transform="matrix(1,0,0,1,400,749) translate(22.124999999999993 14.4)"/><use xlink:href="#g" transform="matrix(1,0,0,1,400,749) translate(76.07499999999999 14.4)"/><path d="M1325.67 658.55h-39.47c-3.4 0-6.2-3.32-6.2-6.28V620h50.86v33.15c0 3-1.73 5.4-5.2 5.4z" stroke="#000" stroke-opacity="0" fill="#3e3e3e"/><path d="M1299.72 620h11.42v34.96h-11.42V620z" stroke="#000" stroke-opacity="0" fill="#fff"/><path d="M1299.72 620h11.42v34.96h-11.42V620z" stroke="#000" stroke-opacity="0" fill="#59b4d9"/><path d="M1315.3 620h11.4v34.96h-11.4V620z" stroke="#000" stroke-opacity="0" fill="#804998"/><path d="M1284.15 620h11.42v34.96h-11.42V620z" stroke="#000" stroke-opacity="0" fill="#59b4d9"/><path d="M1299.72 654.96V620h2.08v34.96h-2.08zM1284.15 654.96V620h2.08v34.96h-2.08z" stroke="#000" stroke-opacity="0" stroke-width="0" fill="#fff" fill-opacity=".4"/><path d="M1315.3 654.96V620h2.07v34.96h-2.08z" stroke="#000" stroke-opacity="0" stroke-width="0" fill="#fff" fill-opacity=".3"/><path d="M1285.1 658.46h3.2l33.22-38.46H1280v32.27c0 2.65 2.2 5.73 5.1 6.2z" stroke="#000" stroke-opacity="0" fill="#fff" fill-opacity=".15"/><path d="M1280.6 620h49.64c.4 0 .6.2.6.55v31.47c0 .36-.2.55-.6.55h-49.63c-.4 0-.6-.2-.6-.55v-31.47c0-.35.2-.55.6-.55z" stroke="#000" stroke-opacity="0" stroke-width="0" fill-opacity="0"/><path d="M1280 652.56s.4 5.87 7.32 6.02l38.36-.04s5.14.16 5.2-5.4V620H1280z" stroke="#000" stroke-opacity="0" stroke-width="0" fill-opacity="0"/><path d="M1280.6 620h49.64c.4 0 .6.2.6.55V652c0 .34-.2.54-.6.54h-49.63c-.4 0-.6-.2-.6-.55v-31.45c0-.35.2-.55.6-.55z" stroke="#000" stroke-width="0" fill-opacity="0"/><use xlink:href="#h" transform="matrix(1,0,0,1,1250,667.5826771653544) translate(24 14.4)"/><use xlink:href="#i" transform="matrix(1,0,0,1,1250,667.5826771653544) translate(24.025 36)"/><path d="M1324.66 420h-38.45c-3.4 0-6.2 2.7-6.2 6.08v35.34c0 3.37 2.8 6.08 6.2 6.08h38.46c3.4 0 6.2-2.7 6.2-6.08V426.1c0-3.37-2.8-6.08-6.2-6.08z" stroke="#000" stroke-opacity="0" fill="#3e3e3e"/><path d="M1315.3 424.04h11.4v11.12h-11.4v-11.12zM1299.72 424.04h11.42v11.12h-11.42v-11.12zM1284.15 424.04h11.42v11.12h-11.42v-11.12zM1315.3 438.2h11.4v11.1h-11.4v-11.1z" stroke="#000" stroke-opacity="0" fill="#fff" fill-opacity=".9"/><path d="M1299.72 438.2h11.42v11.1h-11.42v-11.1z" stroke="#000" stroke-opacity="0" fill="#fcd116"/><path d="M1284.15 438.2h11.42v11.1h-11.42v-11.1z" stroke="#000" stroke-opacity="0" fill="#fff" fill-opacity=".9"/><path d="M1315.3 452.34h11.4v11.12h-11.4v-11.12z" stroke="#000" stroke-opacity="0" fill="#fcd116"/><path d="M1315.3 452.34h11.4v2.02h-11.4v-2.02z" stroke="#000" stroke-opacity="0" fill="#fff" fill-opacity=".3"/><path d="M1299.72 452.34h11.42v11.12h-11.42v-11.12zM1284.15 452.34h11.42v11.12h-11.42v-11.12z" stroke="#000" stroke-opacity="0" fill="#fcd116"/><path d="M1299.72 452.34h11.42v2.02h-11.42v-2.02zM1284.15 452.34h11.42v2.02h-11.42v-2.02z" stroke="#000" stroke-opacity="0" fill="#fff" fill-opacity=".3"/><path d="M1284.15 438.2h11.42v2h-11.42v-2z" stroke="#000" stroke-opacity="0" fill="#fff" fill-opacity=".6"/><path d="M1299.72 438.2h11.42v2h-11.42v-2z" stroke="#000" stroke-opacity="0" fill="#fff" fill-opacity=".3"/><path d="M1315.3 438.2h11.4v2h-11.4v-2zM1315.3 424.04h11.4v2.02h-11.4v-2.02zM1299.72 424.04h11.42v2.02h-11.42v-2.02zM1284.15 424.04h11.42v2.02h-11.42v-2.02z" stroke="#000" stroke-opacity="0" fill="#fff" fill-opacity=".6"/><path d="M1286.23 467.5h2.97l34.4-47.5h-37.37c-3.44 0-6.23 2.7-6.23 6.08v35.34c0 3.37 2.8 6.08 6.23 6.08z" stroke="#000" stroke-opacity="0" fill="#fff" fill-opacity=".15"/><use xlink:href="#j" transform="matrix(1,0,0,1,1250,476.5) translate(0.07499999999999574 14.4)"/><use xlink:href="#i" transform="matrix(1,0,0,1,1250,476.5) translate(47.975 14.4)"/><path d="M1324.73 563h-38.63c-3.36 0-6.1-2.75-6.1-6.17V515.5h50.83v41.33c0 3.4-2.75 6.17-6.1 6.17z" stroke="#000" stroke-opacity="0" fill="#3e3e3e"/><path d="M1284.07 546.48h23.38v12.4h-23.38v-12.4zM1284.07 515.5h7.1v12.4h-7.1v-12.4z" stroke="#000" stroke-opacity="0" fill="#804998"/><path d="M1284.07 515.5h7.1v2.07h-7.1v-2.07z" stroke="#000" stroke-opacity="0" fill="#fff" fill-opacity=".2"/><path d="M1294.23 515.5h11.18v12.4h-11.17v-12.4z" stroke="#000" stroke-opacity="0" fill="#e5e5e5"/><path d="M1294.23 515.5h11.18v2.07h-11.17v-2.07z" stroke="#000" stroke-opacity="0" fill="#fff" fill-opacity=".2"/><path d="M1308.46 515.5h4.07v12.4h-4.07v-12.4z" stroke="#000" stroke-opacity="0" fill="#804998"/><path d="M1308.46 515.5h4.07v2.07h-4.07v-2.07z" stroke="#000" stroke-opacity="0" fill="#fff" fill-opacity=".2"/><path d="M1315.58 515.5h11.18v12.4h-11.18v-12.4z" stroke="#000" stroke-opacity="0" fill="#59b4d9"/><path d="M1315.58 515.5h11.18v2.07h-11.18v-2.07zM1284.07 546.48h23.38v2.06h-23.38v-2.06z" stroke="#000" stroke-opacity="0" fill="#fff" fill-opacity=".2"/><path d="M1310.5 546.48h16.26v12.4h-16.26v-12.4z" stroke="#000" stroke-opacity="0" fill="#59b4d9"/><path d="M1310.5 546.48h16.26v2.06h-16.26v-2.06z" stroke="#000" stroke-opacity="0" fill="#fff" fill-opacity=".2"/><path d="M1303.38 531h23.38v12.38h-23.38v-12.4z" stroke="#000" stroke-opacity="0" fill="#e5e5e5"/><path d="M1326.76 533.05h-23.38V531h23.38v2.05z" stroke="#000" stroke-opacity="0" fill="#fff" fill-opacity=".2"/><path d="M1284.07 531h16.26v12.38h-16.26v-12.4z" stroke="#000" stroke-opacity="0" fill="#59b4d9"/><path d="M1300.33 533.05h-16.26V531h16.26v2.05z" stroke="#000" stroke-opacity="0" fill="#fff" fill-opacity=".2"/><path d="M1286.1 563h2.74l31.9-47.5H1280v41.33c0 3.4 2.73 6.17 6.1 6.17z" stroke="#000" stroke-opacity="0" fill="#fff" fill-opacity=".15"/><path d="M1280.6 515.5h49.66c.4 0 .6.2.6.62v40.15c0 .4-.2.62-.6.62h-49.65c-.4 0-.6-.22-.6-.63v-40.15c0-.4.2-.62.6-.62z" stroke="#000" stroke-opacity="0" stroke-width="0" fill-opacity="0"/><use xlink:href="#k" transform="matrix(1,0,0,1,1250,572) translate(3.549999999999997 14.4)"/><use xlink:href="#i" transform="matrix(1,0,0,1,1250,572) translate(44.5 14.4)"/><path d="M673.23 276.5h-142.8v-2h142.8zm193.28 0H741.24v-2H866.5z" fill="#5e5e5e"/><path d="M530.47 276.5h-1.07v-.14l.06-1.36-.05-.5h1.07zM881.77 275.5l-14.26 4.64v-9.28z" fill="#5e5e5e"/><path d="M885 275.5l-18.5 6v-12zm-16.5 3.26l10.04-3.26-10.03-3.26z" fill="#5e5e5e"/><use xlink:href="#l" transform="matrix(1,0,0,1,673.225990469334,264.8333333333333) translate(0.005000000000002558 14.222222222222223)"/><path d="M503.8 522.7h-63.9c-2.65 0-4.78-2.16-4.78-4.8 0-2.66 2.13-4.83 4.77-4.83h63.9c2.63 0 4.76 2.17 4.76 4.82 0 2.64-2.13 4.8-4.77 4.8zM490.8 563h-59.04c-2.67 0-4.8-2.17-4.8-4.82 0-2.66 2.13-4.83 4.8-4.83h59.04c2.67 0 4.8 2.17 4.8 4.83 0 2.65-2.13 4.82-4.8 4.82zM483.84 543.46H424.8c-2.67 0-4.8-2.17-4.8-4.82 0-2.66 2.13-4.83 4.8-4.83h59.04c2.67 0 4.8 2.18 4.8 4.84 0 2.65-2.13 4.82-4.8 4.82z" stroke="#000" stroke-opacity="0" fill="#7a7a7a"/><path d="M540 552.6c0-5.77-4.53-10.34-10.1-10.34h-1.4c.44-2.2.96-4.62.96-7.25 0-14.96-12.3-27-26.92-27-11.76 0-21.78 7.98-25.44 18.32-1.92-.45-3.83-.94-6-.94-10.3 0-18.22 8.4-18.22 18.8 0 10.35 8.2 18.82 18.2 18.82h59.34c5.5-.72 9.58-5.06 9.58-10.4" stroke="#000" stroke-opacity="0" fill="#3999c6"/><path d="M480.7 562.78c-2.37-2.42-4.28-5.33-5.03-9.18-2.14-10.13 3.87-20.02 13.7-22.23 2.15-.44 4.06-.44 6.25-.22.7-9.4 6.48-17.6 15.1-21.72-2.66-.72-5.26-1.43-8.16-1.43-11.74 0-21.86 7.98-25.45 18.32-1.9-.45-3.8-.94-6-.94-10.3 0-18.22 8.4-18.22 18.8 0 10.35 8.16 18.82 18.22 18.82l9.6-.22z" stroke="#000" stroke-opacity="0" fill="#fff" fill-opacity=".2"/><use xlink:href="#d" transform="matrix(1,0,0,1,390,572) translate(38.14999999999999 14.4)"/><use xlink:href="#e" transform="matrix(1,0,0,1,390,572) translate(82 14.4)"/><path d="M689.38 536.5H530.44v-2h158.94zm168.02 0h-88.12v-2h88.12z" fill="#5e5e5e"/><path d="M530.47 536.5h-1.07v-.14l.06-1.36-.05-.5h1.07zM872.67 535.5l-14.27 4.64v-9.28z" fill="#5e5e5e"/><path d="M875.9 535.5l-18.5 6v-12zm-16.5 3.26l10.03-3.26-10.03-3.26z" fill="#5e5e5e"/><use xlink:href="#m" transform="matrix(1,0,0,1,689.3827160493828,524.8333333333334) translate(0.005000000000002558 14.222222222222223)"/><path d="M227.64 523.7c0 4.56-4.43 8.24-9.92 8.24-5.5 0-9.92-3.68-9.92-8.24 0-4.52 4.42-8.2 9.92-8.2s9.92 3.68 9.92 8.2m-2.66 11.04l-7.26 8.44-7.27-8.44H200v20.76h35.43v-20.76z" stroke="#000" stroke-opacity="0" stroke-width="3" fill="#59b4d9"/><path d="M200 534.74v20.76h35.43v-20.76l-10.87-5.98 1.87-7.23-8.47-5.58-9.24 6.3 2.37 6.87z" stroke="#000" stroke-opacity="0" stroke-width="0" fill-opacity="0"/><use xlink:href="#n" transform="matrix(1,0,0,1,170,564.5) translate(24.549999999999997 14.4)"/><path d="M236.43 535.5h166.35" stroke="#5e5e5e" stroke-width="2" fill="none"/><path d="M236.46 536.5h-1.03v-1.76l-.43-.24h1.46z" fill="#5e5e5e"/><path d="M418.05 535.5l-14.27 4.64v-9.28z" stroke="#5e5e5e" stroke-width="2" fill="#5e5e5e"/><path d="M331 683.87l.7 2.64 1.8 1.8 2.63.7h75.37v2h-75.63l-3.42-.92-2.53-2.53-.92-3.42v-58h2zm-3.45-148.45l2.53 2.53.92 3.42v63.43h-2v-63.17l-.7-2.64-1.8-1.8-2.63-.7h-87.44v-2h87.7z" fill="#5e5e5e"/><path d="M236.46 536.5h-1.03v-1.76l-.43-.24h1.46zM426.76 690l-14.26 4.64v-9.28z" fill="#5e5e5e"/><path d="M430 690l-18.5 6v-12zm-16.5 3.26l10.03-3.26-10.03-3.26z" fill="#5e5e5e"/><use xlink:href="#o" transform="matrix(1,0,0,1,276.34567901234567,604.7998688333333) translate(0.005000000000002558 14.222222222222223)"/><path d="M227.64 263.7c0 4.56-4.43 8.24-9.92 8.24-5.5 0-9.92-3.68-9.92-8.24 0-4.52 4.42-8.2 9.92-8.2s9.92 3.68 9.92 8.2m-2.66 11.04l-7.26 8.44-7.27-8.44H200v20.76h35.43v-20.76z" stroke="#000" stroke-opacity="0" stroke-width="3" fill="#59b4d9"/><path d="M200 274.74v20.76h35.43v-20.76l-10.87-5.98 1.87-7.23-8.47-5.58-9.24 6.3 2.37 6.87z" stroke="#000" stroke-opacity="0" stroke-width="0" fill-opacity="0"/><use xlink:href="#p" transform="matrix(1,0,0,1,170,304.5) translate(23.25 14.4)"/><path d="M236.43 275.5h166.35" stroke="#5e5e5e" stroke-width="2" fill="none"/><path d="M236.46 276.5h-1.03v-1.76l-.43-.24h1.46z" fill="#5e5e5e"/><path d="M418.05 275.5l-14.27 4.64v-9.28z" stroke="#5e5e5e" stroke-width="2" fill="#5e5e5e"/><path d="M1041.58 536.5h-45.62v-2h45.62zm219.92 0h-140.02v-2h140.02z" fill="#5e5e5e"/><path d="M996 536.5h-1.58l.25-.25.68-1.75h.64zM1276.76 535.5l-14.26 4.64v-9.28z" fill="#5e5e5e"/><path d="M1280 535.5l-18.5 6v-12zm-16.5 3.26l10.03-3.26-10.03-3.26z" fill="#5e5e5e"/><use xlink:href="#m" transform="matrix(1,0,0,1,1041.5771865800516,524.8333333333334) translate(0.005000000000002558 14.222222222222223)"/><path d="M1041.58 536.5h-45.62v-2h45.62zm219.92-91.75h-117.9l-2.63.7-1.77 1.8-.72 2.63v79.75l-.92 3.42-2.53 2.53-3.42.92h-10.12v-2h9.87l2.64-.7 1.77-1.8.7-2.63v-79.75l.93-3.42 2.53-2.53 3.42-.92h118.15z" fill="#5e5e5e"/><path d="M996 536.5h-1.58l.25-.25.68-1.75h.64zM1276.76 443.75l-14.26 4.64v-9.3z" fill="#5e5e5e"/><path d="M1280 443.75l-18.5 6v-12zm-16.5 3.26l10.03-3.25-10.03-3.26zM1135.03 535.42l2.53 2.53.92 3.42v91.8l.72 2.63 1.77 1.78 2.64.7h117.9v2h-118.15l-3.42-.9-2.53-2.54-.92-3.42v-91.8l-.7-2.63-1.8-1.8-2.63-.7h-9.87v-2h10.13zm-139.07 1.08v-2h45.62v2z" fill="#5e5e5e"/><path d="M996 536.5h-1.58l.25-.25.68-1.75h.64zM1276.76 639.3l-14.26 4.63v-9.27z" fill="#5e5e5e"/><path d="M1280 639.3l-18.5 6v-12.02zm-16.5 3.25l10.03-3.26-10.03-3.27z" fill="#5e5e5e"/><path d="M1679.24 640.04c1.1-1.1.9-3.17 0-4.34l-5.8-5.8-25.87-25.24c-1.14-1.1-2.8-1.1-4.14 0-1.14 1.17-1.48 3.24 0 4.34l27.2 26.7c1.1 1.17 1.1 3.24 0 4.34l-27.77 27.66c-1.1 1.1-1.1 3.17 0 4.35 1.14 1.1 3.2.9 4.14 0l25.67-25.6.2-.2 6.37-6.2zM1560.76 640.04c-1.1-1.1-.9-3.17 0-4.34l5.8-5.8 25.87-25.24c1.14-1.1 2.8-1.1 4.14 0 1.14 1.17 1.48 3.24 0 4.34l-26.62 26.7c-1.1 1.17-1.1 3.24 0 4.34l27.2 27.66c1.1 1.1 1.1 3.17 0 4.35-1.15 1.1-3.2.9-4.15 0l-26.24-25.25-.2-.14-5.8-6.62z" stroke="#000" stroke-opacity="0" stroke-width="2.34" fill="#3999c6"/><path d="M1649.25 583.8h-36.58L1593 639.5l24 .12-18.75 55.17 51.74-73.6h-25.14l24.4-37.4z" stroke="#000" stroke-opacity="0" stroke-width="2.34" fill="#fcd116"/><path d="M1624.85 621.2l24.4-37.4h-19.13l-20.22 46.28 23.95.22-35.6 64.5 51.74-73.6h-25.15z" stroke="#000" stroke-opacity="0" stroke-width="2.34" fill="#ff8c00" fill-opacity=".3"/><path d="M1613.9 586.17l-5.7 19.15-14.53.93-32.2 31.54 32.3 32.67 12.45 5.2-5.8 14.26 11.85-16.54 30.58-1.37 34.88-34.03-31.86-31.95-11.86-.52 11.52-19.68z" stroke="#000" stroke-opacity="0" stroke-width="0" fill-opacity="0"/><use xlink:href="#a" transform="matrix(1,0,0,1,1530,703.7913385826772) translate(20.57499999999999 14.4)"/><use xlink:href="#b" transform="matrix(1,0,0,1,1530,703.7913385826772) translate(81.52499999999999 14.4)"/><path d="M1420.17 640.3h-88.3v-2h88.3zm130.9 0h-70.8v-2h70.8z" fill="#5e5e5e"/><path d="M1331.9 640.3h-1.03v-2h1.02zm-1.04 0v-2zM1566.34 639.3l-14.27 4.63v-9.27z" fill="#5e5e5e"/><path d="M1569.58 639.3l-18.5 6v-12.02zm-16.5 3.25l10.02-3.26-10.03-3.27z" fill="#5e5e5e"/><use xlink:href="#q" transform="matrix(1,0,0,1,1420.1719506064082,628.6246719160106) translate(0.004999999999999005 14.222222222222223)"/><path d="M1331.87 539.25H1614c3.3 0 6 2.7 6 6v20.04" stroke="#5e5e5e" stroke-width="2" fill="none"/><path d="M1331.9 540.25h-1.03v-2h1.02z" fill="#5e5e5e"/><path d="M1620 580.56l-4.64-14.27h9.28z" stroke="#5e5e5e" stroke-width="2" fill="#5e5e5e"/><path d="M1544.73 299.25h-38.63c-3.36 0-6.1-2.75-6.1-6.18v-41.32h50.83v41.32c0 3.43-2.75 6.18-6.1 6.18z" stroke="#000" stroke-opacity="0" fill="#3e3e3e"/><path d="M1504.07 282.73h23.38v12.4h-23.38v-12.4zM1504.07 251.75h7.1v12.4h-7.1v-12.4z" stroke="#000" stroke-opacity="0" fill="#804998"/><path d="M1504.07 251.75h7.1v2.07h-7.1v-2.07z" stroke="#000" stroke-opacity="0" fill="#fff" fill-opacity=".2"/><path d="M1514.23 251.75h11.18v12.4h-11.17v-12.4z" stroke="#000" stroke-opacity="0" fill="#e5e5e5"/><path d="M1514.23 251.75h11.18v2.07h-11.17v-2.07z" stroke="#000" stroke-opacity="0" fill="#fff" fill-opacity=".2"/><path d="M1528.46 251.75h4.07v12.4h-4.07v-12.4z" stroke="#000" stroke-opacity="0" fill="#804998"/><path d="M1528.46 251.75h4.07v2.07h-4.07v-2.07z" stroke="#000" stroke-opacity="0" fill="#fff" fill-opacity=".2"/><path d="M1535.58 251.75h11.18v12.4h-11.18v-12.4z" stroke="#000" stroke-opacity="0" fill="#59b4d9"/><path d="M1535.58 251.75h11.18v2.07h-11.18v-2.07zM1504.07 282.73h23.38v2.06h-23.38v-2.07z" stroke="#000" stroke-opacity="0" fill="#fff" fill-opacity=".2"/><path d="M1530.5 282.73h16.26v12.4h-16.26v-12.4z" stroke="#000" stroke-opacity="0" fill="#59b4d9"/><path d="M1530.5 282.73h16.26v2.06h-16.26v-2.07z" stroke="#000" stroke-opacity="0" fill="#fff" fill-opacity=".2"/><path d="M1523.38 267.24h23.38v12.4h-23.38v-12.4z" stroke="#000" stroke-opacity="0" fill="#e5e5e5"/><path d="M1546.76 269.3h-23.38v-2.06h23.38v2.06z" stroke="#000" stroke-opacity="0" fill="#fff" fill-opacity=".2"/><path d="M1504.07 267.24h16.26v12.4h-16.26v-12.4z" stroke="#000" stroke-opacity="0" fill="#59b4d9"/><path d="M1520.33 269.3h-16.26v-2.06h16.26v2.06z" stroke="#000" stroke-opacity="0" fill="#fff" fill-opacity=".2"/><path d="M1506.1 299.25h2.74l31.9-47.5H1500v41.32c0 3.43 2.73 6.18 6.1 6.18z" stroke="#000" stroke-opacity="0" fill="#fff" fill-opacity=".15"/><path d="M1500.6 251.75h49.66c.4 0 .6.2.6.62v40.15c0 .4-.2.62-.6.62h-49.65c-.4 0-.6-.2-.6-.62v-40.15c0-.4.2-.62.6-.62z" stroke="#000" stroke-opacity="0" stroke-width="0" fill-opacity="0"/><use xlink:href="#k" transform="matrix(1,0,0,1,1470,308.25) translate(3.549999999999997 14.4)"/><use xlink:href="#i" transform="matrix(1,0,0,1,1470,308.25) translate(44.5 14.4)"/><path d="M1720.53 633.42l-.92 3.42-2.52 2.53-3.42.92h-33.13v-2h32.87l2.64-.72 1.78-1.78.7-2.64V500.64h2zm-3.45-358l2.53 2.53.93 3.42V479.3h-2V281.64l-.7-2.64-1.8-1.8-2.63-.7h-144.03v-2h144.3z" fill="#5e5e5e"/><path d="M1680.56 640.3h-1.58l.26-.26.68-1.75h.64zM1568.37 280.14l-14.27-4.64 14.27-4.64z" fill="#5e5e5e"/><path d="M1569.37 281.5l-18.5-6 18.5-6zm-12.03-6l10.03 3.26v-6.52z" fill="#5e5e5e"/><use xlink:href="#r" transform="matrix(1,0,0,1,1687.5052292764408,479.30851636021094) translate(0.005000000000002558 14.222222222222223)"/><path d="M1146 276.5H995.96v-2H1146zm335.5 0H1214v-2h267.5z" fill="#5e5e5e"/><path d="M996 276.5h-1.58l.25-.25.68-1.75h.64zM1496.76 275.5l-14.26 4.64v-9.28z" fill="#5e5e5e"/><path d="M1500 275.5l-18.5 6v-12zm-16.5 3.26l10.03-3.26-10.03-3.26zM1302.98 275.42l2.53 2.53.93 3.42V401.5h-2V281.63l-.7-2.64-1.8-1.8-2.63-.7H1214v-2h85.57zm-307.02 1.08v-2H1146v2z" fill="#5e5e5e"/><path d="M996 276.5h-1.58l.25-.25.68-1.75h.64zM1305.43 416.76l-4.63-14.26h9.27z" fill="#5e5e5e"/><path d="M1305.43 420l-6-18.5h12zm-3.26-16.5l3.26 10.03 3.26-10.03z" fill="#5e5e5e"/><g><use xlink:href="#l" transform="matrix(1,0,0,1,1146,264.8333333333333) translate(0.005000000000002558 14.222222222222223)"/></g><defs><path d="M30 0v-248h187v28H63v79h144v27H63v87h162V0H30" id="s"/><path d="M117-194c89-4 53 116 60 194h-32v-121c0-31-8-49-39-48C34-167 62-67 57 0H25l-1-190h30c1 10-1 24 2 32 11-22 29-35 61-36" id="t"/><path d="M177-190C167-65 218 103 67 71c-23-6-38-20-44-43l32-5c15 47 100 32 89-28v-30C133-14 115 1 83 1 29 1 15-40 15-95c0-56 16-97 71-98 29-1 48 16 59 35 1-10 0-23 2-32h30zM94-22c36 0 50-32 50-73 0-42-14-75-50-75-39 0-46 34-46 75s6 73 46 73" id="u"/><path d="M24-231v-30h32v30H24zM24 0v-190h32V0H24" id="v"/><path d="M100-194c63 0 86 42 84 106H49c0 40 14 67 53 68 26 1 43-12 49-29l28 8c-11 28-37 45-77 45C44 4 14-33 15-96c1-61 26-98 85-98zm52 81c6-60-76-77-97-28-3 7-6 17-6 28h103" id="w"/><g id="a"><use transform="matrix(0.05,0,0,0.05,0,0)" xlink:href="#s"/><use transform="matrix(0.05,0,0,0.05,12,0)" xlink:href="#t"/><use transform="matrix(0.05,0,0,0.05,22,0)" xlink:href="#u"/><use transform="matrix(0.05,0,0,0.05,32,0)" xlink:href="#v"/><use transform="matrix(0.05,0,0,0.05,35.95,0)" xlink:href="#t"/><use transform="matrix(0.05,0,0,0.05,45.95,0)" xlink:href="#w"/></g><path d="M63-220v92h138v28H63V0H30v-248h175v28H63" id="x"/><path d="M84 4C-5 8 30-112 23-190h32v120c0 31 7 50 39 49 72-2 45-101 50-169h31l1 190h-30c-1-10 1-25-2-33-11 22-28 36-60 37" id="y"/><path d="M96-169c-40 0-48 33-48 73s9 75 48 75c24 0 41-14 43-38l32 2c-6 37-31 61-74 61-59 0-76-41-82-99-10-93 101-131 147-64 4 7 5 14 7 22l-32 3c-4-21-16-35-41-35" id="z"/><path d="M59-47c-2 24 18 29 38 22v24C64 9 27 4 27-40v-127H5v-23h24l9-43h21v43h35v23H59v120" id="A"/><path d="M100-194c62-1 85 37 85 99 1 63-27 99-86 99S16-35 15-95c0-66 28-99 85-99zM99-20c44 1 53-31 53-75 0-43-8-75-51-75s-53 32-53 75 10 74 51 75" id="B"/><path d="M135-143c-3-34-86-38-87 0 15 53 115 12 119 90S17 21 10-45l28-5c4 36 97 45 98 0-10-56-113-15-118-90-4-57 82-63 122-42 12 7 21 19 24 35" id="C"/><g id="b"><use transform="matrix(0.05,0,0,0.05,0,0)" xlink:href="#x"/><use transform="matrix(0.05,0,0,0.05,10.950000000000001,0)" xlink:href="#y"/><use transform="matrix(0.05,0,0,0.05,20.950000000000003,0)" xlink:href="#t"/><use transform="matrix(0.05,0,0,0.05,30.950000000000003,0)" xlink:href="#z"/><use transform="matrix(0.05,0,0,0.05,39.95,0)" xlink:href="#A"/><use transform="matrix(0.05,0,0,0.05,44.95,0)" xlink:href="#v"/><use transform="matrix(0.05,0,0,0.05,48.900000000000006,0)" xlink:href="#B"/><use transform="matrix(0.05,0,0,0.05,58.900000000000006,0)" xlink:href="#t"/><use transform="matrix(0.05,0,0,0.05,68.9,0)" xlink:href="#C"/></g><path d="M114-163C36-179 61-72 57 0H25l-1-190h30c1 12-1 29 2 39 6-27 23-49 58-41v29" id="D"/><path d="M85-194c31 0 48 13 60 33l-1-100h32l1 261h-30c-2-10 0-23-3-31C134-8 116 4 85 4 32 4 16-35 15-94c0-66 23-100 70-100zm9 24c-40 0-46 34-46 75 0 40 6 74 45 74 42 0 51-32 51-76 0-42-9-74-50-73" id="E"/><g id="c"><use transform="matrix(0.05,0,0,0.05,0,0)" xlink:href="#x"/><use transform="matrix(0.05,0,0,0.05,10.950000000000001,0)" xlink:href="#D"/><use transform="matrix(0.05,0,0,0.05,16.900000000000002,0)" xlink:href="#B"/><use transform="matrix(0.05,0,0,0.05,26.900000000000002,0)" xlink:href="#t"/><use transform="matrix(0.05,0,0,0.05,36.900000000000006,0)" xlink:href="#A"/><use transform="matrix(0.05,0,0,0.05,41.900000000000006,0)" xlink:href="#w"/><use transform="matrix(0.05,0,0,0.05,51.900000000000006,0)" xlink:href="#t"/><use transform="matrix(0.05,0,0,0.05,61.900000000000006,0)" xlink:href="#E"/></g><path d="M212-179c-10-28-35-45-73-45-59 0-87 40-87 99 0 60 29 101 89 101 43 0 62-24 78-52l27 14C228-24 195 4 139 4 59 4 22-46 18-125c-6-104 99-153 187-111 19 9 31 26 39 46" id="F"/><path d="M30-248c118-7 216 8 213 122C240-48 200 0 122 0H30v-248zM63-27c89 8 146-16 146-99s-60-101-146-95v194" id="G"/><path d="M190 0L58-211 59 0H30v-248h39L202-35l-2-213h31V0h-41" id="H"/><g id="d"><use transform="matrix(0.05,0,0,0.05,0,0)" xlink:href="#F"/><use transform="matrix(0.05,0,0,0.05,12.950000000000001,0)" xlink:href="#G"/><use transform="matrix(0.05,0,0,0.05,25.900000000000002,0)" xlink:href="#H"/></g><path d="M30-248c87 1 191-15 191 75 0 78-77 80-158 76V0H30v-248zm33 125c57 0 124 11 124-50 0-59-68-47-124-48v98" id="I"/><path d="M101-234c-31-9-42 10-38 44h38v23H63V0H32v-167H5v-23h27c-7-52 17-82 69-68v24" id="J"/><path d="M24 0v-261h32V0H24" id="K"/><g id="e"><use transform="matrix(0.05,0,0,0.05,0,0)" xlink:href="#I"/><use transform="matrix(0.05,0,0,0.05,12,0)" xlink:href="#D"/><use transform="matrix(0.05,0,0,0.05,17.95,0)" xlink:href="#B"/><use transform="matrix(0.05,0,0,0.05,27.950000000000003,0)" xlink:href="#J"/><use transform="matrix(0.05,0,0,0.05,32.95,0)" xlink:href="#v"/><use transform="matrix(0.05,0,0,0.05,36.900000000000006,0)" xlink:href="#K"/><use transform="matrix(0.05,0,0,0.05,40.85000000000001,0)" xlink:href="#w"/><use transform="matrix(0.05,0,0,0.05,50.85000000000001,0)" xlink:href="#C"/></g><path d="M205 0l-28-72H64L36 0H1l101-248h38L239 0h-34zm-38-99l-47-123c-12 45-31 82-46 123h93" id="L"/><path d="M108 0H70L1-190h34L89-25l56-165h34" id="M"/><g id="f"><use transform="matrix(0.05,0,0,0.05,0,0)" xlink:href="#L"/><use transform="matrix(0.05,0,0,0.05,12,0)" xlink:href="#z"/><use transform="matrix(0.05,0,0,0.05,21,0)" xlink:href="#A"/><use transform="matrix(0.05,0,0,0.05,26,0)" xlink:href="#v"/><use transform="matrix(0.05,0,0,0.05,29.950000000000003,0)" xlink:href="#M"/><use transform="matrix(0.05,0,0,0.05,38.95,0)" xlink:href="#w"/></g><path d="M179-190L93 31C79 59 56 82 12 73V49c39 6 53-20 64-50L1-190h34L92-34l54-156h33" id="N"/><g id="g"><use transform="matrix(0.05,0,0,0.05,0,0)" xlink:href="#G"/><use transform="matrix(0.05,0,0,0.05,12.950000000000001,0)" xlink:href="#v"/><use transform="matrix(0.05,0,0,0.05,16.900000000000002,0)" xlink:href="#D"/><use transform="matrix(0.05,0,0,0.05,22.85,0)" xlink:href="#w"/><use transform="matrix(0.05,0,0,0.05,32.85,0)" xlink:href="#z"/><use transform="matrix(0.05,0,0,0.05,41.85,0)" xlink:href="#A"/><use transform="matrix(0.05,0,0,0.05,46.85,0)" xlink:href="#B"/><use transform="matrix(0.05,0,0,0.05,56.85,0)" xlink:href="#D"/><use transform="matrix(0.05,0,0,0.05,62.800000000000004,0)" xlink:href="#N"/></g><path d="M140-251c81 0 123 46 123 126C263-53 228-8 163 1c7 30 30 48 69 40v23c-55 16-95-15-103-61C56-3 17-48 17-125c0-80 42-126 123-126zm0 227c63 0 89-41 89-101s-29-99-89-99c-61 0-89 39-89 99S79-25 140-24" id="O"/><g id="h"><use transform="matrix(0.05,0,0,0.05,0,0)" xlink:href="#O"/><use transform="matrix(0.05,0,0,0.05,14,0)" xlink:href="#y"/><use transform="matrix(0.05,0,0,0.05,24,0)" xlink:href="#w"/><use transform="matrix(0.05,0,0,0.05,34,0)" xlink:href="#y"/><use transform="matrix(0.05,0,0,0.05,44,0)" xlink:href="#w"/><use transform="matrix(0.05,0,0,0.05,54,0)" xlink:href="#C"/></g><path d="M185-189c-5-48-123-54-124 2 14 75 158 14 163 119 3 78-121 87-175 55-17-10-28-26-33-46l33-7c5 56 141 63 141-1 0-78-155-14-162-118-5-82 145-84 179-34 5 7 8 16 11 25" id="P"/><path d="M141-36C126-15 110 5 73 4 37 3 15-17 15-53c-1-64 63-63 125-63 3-35-9-54-41-54-24 1-41 7-42 31l-33-3c5-37 33-52 76-52 45 0 72 20 72 64v82c-1 20 7 32 28 27v20c-31 9-61-2-59-35zM48-53c0 20 12 33 32 33 41-3 63-29 60-74-43 2-92-5-92 41" id="Q"/><g id="i"><use transform="matrix(0.05,0,0,0.05,0,0)" xlink:href="#P"/><use transform="matrix(0.05,0,0,0.05,12,0)" xlink:href="#A"/><use transform="matrix(0.05,0,0,0.05,17,0)" xlink:href="#B"/><use transform="matrix(0.05,0,0,0.05,27,0)" xlink:href="#D"/><use transform="matrix(0.05,0,0,0.05,32.95,0)" xlink:href="#Q"/><use transform="matrix(0.05,0,0,0.05,42.95,0)" xlink:href="#u"/><use transform="matrix(0.05,0,0,0.05,52.95,0)" xlink:href="#w"/></g><path d="M127-220V0H93v-220H8v-28h204v28h-85" id="R"/><path d="M115-194c53 0 69 39 70 98 0 66-23 100-70 100C84 3 66-7 56-30L54 0H23l1-261h32v101c10-23 28-34 59-34zm-8 174c40 0 45-34 45-75 0-40-5-75-45-74-42 0-51 32-51 76 0 43 10 73 51 73" id="S"/><g id="j"><use transform="matrix(0.05,0,0,0.05,0,0)" xlink:href="#R"/><use transform="matrix(0.05,0,0,0.05,8.950000000000001,0)" xlink:href="#Q"/><use transform="matrix(0.05,0,0,0.05,18.950000000000003,0)" xlink:href="#S"/><use transform="matrix(0.05,0,0,0.05,28.950000000000003,0)" xlink:href="#K"/><use transform="matrix(0.05,0,0,0.05,32.900000000000006,0)" xlink:href="#w"/></g><path d="M160-131c35 5 61 23 61 61C221 17 115-2 30 0v-248c76 3 177-17 177 60 0 33-19 50-47 57zm-97-11c50-1 110 9 110-42 0-47-63-36-110-37v79zm0 115c55-2 124 14 124-45 0-56-70-42-124-44v89" id="T"/><g id="k"><use transform="matrix(0.05,0,0,0.05,0,0)" xlink:href="#T"/><use transform="matrix(0.05,0,0,0.05,12,0)" xlink:href="#K"/><use transform="matrix(0.05,0,0,0.05,15.949999999999998,0)" xlink:href="#B"/><use transform="matrix(0.05,0,0,0.05,25.950000000000003,0)" xlink:href="#S"/></g><path fill="#333" d="M67-125c0 54 23 88 75 88 28 0 53-7 68-21v-34h-60v-39h108v91C232-14 192 4 140 4 58 4 20-42 15-125 8-236 126-280 215-234c19 10 29 26 37 47l-47 15c-11-23-29-39-63-39-53 1-75 33-75 86" id="U"/><path fill="#333" d="M185-48c-13 30-37 53-82 52C43 2 14-33 14-96s30-98 90-98c62 0 83 45 84 108H66c0 31 8 55 39 56 18 0 30-7 34-22zm-45-69c5-46-57-63-70-21-2 6-4 13-4 21h74" id="V"/><path fill="#333" d="M115-3C79 11 28 4 28-45v-112H4v-33h27l15-45h31v45h36v33H77v99c-1 23 16 31 38 25v30" id="W"/><path fill="#333" d="M24-248c93 1 206-16 204 79-1 75-69 88-152 82V0H24v-248zm52 121c47 0 100 7 100-41 0-47-54-39-100-39v80" id="X"/><path fill="#333" d="M110-194c64 0 96 36 96 99 0 64-35 99-97 99-61 0-95-36-95-99 0-62 34-99 96-99zm-1 164c35 0 45-28 45-65 0-40-10-65-43-65-34 0-45 26-45 65 0 36 10 65 43 65" id="Y"/><path fill="#333" d="M137-138c1-29-70-34-71-4 15 46 118 7 119 86 1 83-164 76-172 9l43-7c4 19 20 25 44 25 33 8 57-30 24-41C81-84 22-81 20-136c-2-80 154-74 161-7" id="Z"/><g id="l"><use transform="matrix(0.04938271604938272,0,0,0.04938271604938272,0,0)" xlink:href="#U"/><use transform="matrix(0.04938271604938272,0,0,0.04938271604938272,13.827160493827162,0)" xlink:href="#V"/><use transform="matrix(0.04938271604938272,0,0,0.04938271604938272,23.703703703703706,0)" xlink:href="#W"/><use transform="matrix(0.04938271604938272,0,0,0.04938271604938272,29.58024691358025,0)" xlink:href="#X"/><use transform="matrix(0.04938271604938272,0,0,0.04938271604938272,41.4320987654321,0)" xlink:href="#Y"/><use transform="matrix(0.04938271604938272,0,0,0.04938271604938272,52.24691358024692,0)" xlink:href="#Z"/><use transform="matrix(0.04938271604938272,0,0,0.04938271604938272,62.12345679012346,0)" xlink:href="#W"/></g><path fill="#333" d="M169-182c-1-43-94-46-97-3 18 66 151 10 154 114 3 95-165 93-204 36-6-8-10-19-12-30l50-8c3 46 112 56 116 5-17-69-150-10-154-114-4-87 153-88 188-35 5 8 8 18 10 28" id="aa"/><path fill="#333" d="M133-34C117-15 103 5 69 4 32 3 11-16 11-54c-1-60 55-63 116-61 1-26-3-47-28-47-18 1-26 9-28 27l-52-2c7-38 36-58 82-57s74 22 75 68l1 82c-1 14 12 18 25 15v27c-30 8-71 5-69-32zm-48 3c29 0 43-24 42-57-32 0-66-3-65 30 0 17 8 27 23 27" id="ab"/><path fill="#333" d="M128 0H69L1-190h53L99-40l48-150h52" id="ac"/><g id="m"><use transform="matrix(0.04938271604938272,0,0,0.04938271604938272,0,0)" xlink:href="#aa"/><use transform="matrix(0.04938271604938272,0,0,0.04938271604938272,11.851851851851853,0)" xlink:href="#ab"/><use transform="matrix(0.04938271604938272,0,0,0.04938271604938272,21.7283950617284,0)" xlink:href="#ac"/><use transform="matrix(0.04938271604938272,0,0,0.04938271604938272,31.60493827160494,0)" xlink:href="#V"/><use transform="matrix(0.04938271604938272,0,0,0.04938271604938272,41.48148148148149,0)" xlink:href="#X"/><use transform="matrix(0.04938271604938272,0,0,0.04938271604938272,53.333333333333336,0)" xlink:href="#Y"/><use transform="matrix(0.04938271604938272,0,0,0.04938271604938272,64.14814814814815,0)" xlink:href="#Z"/><use transform="matrix(0.04938271604938272,0,0,0.04938271604938272,74.0246913580247,0)" xlink:href="#W"/></g><g id="n"><use transform="matrix(0.05,0,0,0.05,0,0)" xlink:href="#s"/><use transform="matrix(0.05,0,0,0.05,12,0)" xlink:href="#E"/><use transform="matrix(0.05,0,0,0.05,22,0)" xlink:href="#v"/><use transform="matrix(0.05,0,0,0.05,25.950000000000003,0)" xlink:href="#A"/><use transform="matrix(0.05,0,0,0.05,30.950000000000003,0)" xlink:href="#B"/><use transform="matrix(0.05,0,0,0.05,40.95,0)" xlink:href="#D"/></g><path fill="#333" d="M199 0l-22-63H83L61 0H9l90-248h61L250 0h-51zm-33-102l-36-108c-10 38-24 72-36 108h72" id="ad"/><path fill="#333" d="M85 4C-2 5 27-109 22-190h50c7 57-23 150 33 157 60-5 35-97 40-157h50l1 190h-47c-2-12 1-28-3-38-12 25-28 42-61 42" id="ae"/><path fill="#333" d="M114-157C55-157 80-60 75 0H25v-261h50l-1 109c12-26 28-41 61-42 86-1 58 113 63 194h-50c-7-57 23-157-34-157" id="af"/><path fill="#333" d="M135-194c87-1 58 113 63 194h-50c-7-57 23-157-34-157-59 0-34 97-39 157H25l-1-190h47c2 12-1 28 3 38 12-26 28-41 61-42" id="ag"/><path fill="#333" d="M25-224v-37h50v37H25zM25 0v-190h50V0H25" id="ah"/><path fill="#333" d="M190-63c-7 42-38 67-86 67-59 0-84-38-90-98-12-110 154-137 174-36l-49 2c-2-19-15-32-35-32-30 0-35 28-38 64-6 74 65 87 74 30" id="ai"/><g id="o"><use transform="matrix(0.04938271604938272,0,0,0.04938271604938272,0,0)" xlink:href="#ad"/><use transform="matrix(0.04938271604938272,0,0,0.04938271604938272,12.790123456790125,0)" xlink:href="#ae"/><use transform="matrix(0.04938271604938272,0,0,0.04938271604938272,23.60493827160494,0)" xlink:href="#W"/><use transform="matrix(0.04938271604938272,0,0,0.04938271604938272,29.481481481481485,0)" xlink:href="#af"/><use transform="matrix(0.04938271604938272,0,0,0.04938271604938272,40.2962962962963,0)" xlink:href="#V"/><use transform="matrix(0.04938271604938272,0,0,0.04938271604938272,50.17283950617284,0)" xlink:href="#ag"/><use transform="matrix(0.04938271604938272,0,0,0.04938271604938272,60.98765432098766,0)" xlink:href="#W"/><use transform="matrix(0.04938271604938272,0,0,0.04938271604938272,66.8641975308642,0)" xlink:href="#ah"/><use transform="matrix(0.04938271604938272,0,0,0.04938271604938272,71.80246913580248,0)" xlink:href="#ai"/><use transform="matrix(0.04938271604938272,0,0,0.04938271604938272,81.67901234567903,0)" xlink:href="#ab"/><use transform="matrix(0.04938271604938272,0,0,0.04938271604938272,91.55555555555557,0)" xlink:href="#W"/><use transform="matrix(0.04938271604938272,0,0,0.04938271604938272,97.43209876543212,0)" xlink:href="#V"/></g><path d="M137 0h-34L2-248h35l83 218 83-218h36" id="aj"/><g id="p"><use transform="matrix(0.05,0,0,0.05,0,0)" xlink:href="#aj"/><use transform="matrix(0.05,0,0,0.05,11.65,0)" xlink:href="#v"/><use transform="matrix(0.05,0,0,0.05,15.600000000000001,0)" xlink:href="#C"/><use transform="matrix(0.05,0,0,0.05,24.6,0)" xlink:href="#v"/><use transform="matrix(0.05,0,0,0.05,28.55,0)" xlink:href="#A"/><use transform="matrix(0.05,0,0,0.05,33.55,0)" xlink:href="#B"/><use transform="matrix(0.05,0,0,0.05,43.55,0)" xlink:href="#D"/></g><path fill="#333" d="M136-208V0H84v-208H4v-40h212v40h-80" id="ak"/><path fill="#333" d="M135-150c-39-12-60 13-60 57V0H25l-1-190h47c2 13-1 29 3 40 6-28 27-53 61-41v41" id="al"/><path fill="#333" d="M195-6C206 82 75 100 31 46c-4-6-6-13-8-21l49-6c3 16 16 24 34 25 40 0 42-37 40-79-11 22-30 35-61 35-53 0-70-43-70-97 0-56 18-96 73-97 30 0 46 14 59 34l2-30h47zm-90-29c32 0 41-27 41-63 0-35-9-62-40-62-32 0-39 29-40 63 0 36 9 62 39 62" id="am"/><g id="q"><use transform="matrix(0.04938271604938272,0,0,0.04938271604938272,0,0)" xlink:href="#ak"/><use transform="matrix(0.04938271604938272,0,0,0.04938271604938272,9.82716049382716,0)" xlink:href="#al"/><use transform="matrix(0.04938271604938272,0,0,0.04938271604938272,16.74074074074074,0)" xlink:href="#ah"/><use transform="matrix(0.04938271604938272,0,0,0.04938271604938272,21.679012345679013,0)" xlink:href="#am"/><use transform="matrix(0.04938271604938272,0,0,0.04938271604938272,32.49382716049383,0)" xlink:href="#am"/><use transform="matrix(0.04938271604938272,0,0,0.04938271604938272,43.308641975308646,0)" xlink:href="#V"/><use transform="matrix(0.04938271604938272,0,0,0.04938271604938272,53.18518518518519,0)" xlink:href="#al"/></g><path fill="#333" d="M135-194c52 0 70 43 70 98 0 56-19 99-73 100-30 1-46-15-58-35L72 0H24l1-261h50v104c11-23 29-37 60-37zM114-30c31 0 40-27 40-66 0-37-7-63-39-63s-41 28-41 65c0 36 8 64 40 64" id="an"/><path fill="#333" d="M25 0v-261h50V0H25" id="ao"/><g id="r"><use transform="matrix(0.04938271604938272,0,0,0.04938271604938272,0,0)" xlink:href="#X"/><use transform="matrix(0.04938271604938272,0,0,0.04938271604938272,11.851851851851853,0)" xlink:href="#ae"/><use transform="matrix(0.04938271604938272,0,0,0.04938271604938272,22.666666666666668,0)" xlink:href="#an"/><use transform="matrix(0.04938271604938272,0,0,0.04938271604938272,33.48148148148148,0)" xlink:href="#ao"/><use transform="matrix(0.04938271604938272,0,0,0.04938271604938272,38.41975308641975,0)" xlink:href="#ah"/><use transform="matrix(0.04938271604938272,0,0,0.04938271604938272,43.358024691358025,0)" xlink:href="#Z"/><use transform="matrix(0.04938271604938272,0,0,0.04938271604938272,53.23456790123457,0)" xlink:href="#af"/></g></defs></g></svg>